<?xml version="1.0" standalone="no"?><svg xmlns="http://www.w3.org/2000/svg" viewBox="0 0 1440 320"><path fill="#a2d9ff" fill-opacity="0.39" d="M0,64L30,80C60,96,120,128,180,144C240,160,300,160,360,149.3C420,139,480,117,540,106.7C600,96,660,96,720,117.3C780,139,840,181,900,176C960,171,1020,117,1080,128C1140,139,1200,213,1260,224C1320,235,1380,181,1410,154.7L1440,128L1440,320L1410,320C1380,320,1320,320,1260,320C1200,320,1140,320,1080,320C1020,320,960,320,900,320C840,320,780,320,720,320C660,320,600,320,540,320C480,320,420,320,360,320C300,320,240,320,180,320C120,320,60,320,30,320L0,320Z"></path></svg>